<svg xmlns="http://www.w3.org/2000/svg" width="199.351" height="48.638" viewBox="0 0 199.351 48.638">
  <g id="Groupe_950" data-name="Groupe 950" transform="translate(-236.999 -2663.083)">
    <path id="Tracé_1" data-name="Tracé 1" d="M352.128,297.312h-3.812l-1.143,2.027h3.678Z" transform="translate(-26.044 2369.757)" fill="#fff"/>
    <path id="Tracé_2" data-name="Tracé 2" d="M387.953,297.312H384.14L383,299.339h3.678Z" transform="translate(-37.473 2369.757)" fill="#fff"/>
    <path id="Tracé_3" data-name="Tracé 3" d="M329.86,318c-2.159,0-3.08-.9-3.08-3V302.3h5.661v-2.334H326.78v-5.54H324.2v5.54h-3.155V302.3H324.2v12.783c0,3.539,1.821,5.332,5.414,5.332a10.559,10.559,0,0,0,2.7-.373l.206-.054v-2.506l-.369.13A6.654,6.654,0,0,1,329.86,318Z" transform="translate(-17.71 2370.677)" fill="#fff"/>
    <path id="Tracé_4" data-name="Tracé 4" d="M381.917,302.088c-8.362,0-9.012,8.261-9.012,10.793,0,8.684,6,9.98,9.579,9.98a16.707,16.707,0,0,0,6.668-1.278l.159-.075V318.8l-.411.225a13.7,13.7,0,0,1-6.255,1.341c-4.048,0-7.1-2.1-7.1-6.441h14.783l.278,0v-.279a7.741,7.741,0,0,0,.04-1.054C390.646,310.132,390.017,302.088,381.917,302.088Zm-.121,2.455c5.57,0,6.175,5.379,6.228,7.048H375.536C375.735,308.309,377.009,304.543,381.8,304.543Z" transform="translate(-34.254 2368.233)" fill="#fff"/>
    <path id="Tracé_5" data-name="Tracé 5" d="M346.927,302.088c-8.362,0-9.011,8.261-9.011,10.793,0,8.684,6,9.98,9.578,9.98a16.7,16.7,0,0,0,6.668-1.278l.16-.075V318.8l-.411.225a13.706,13.706,0,0,1-6.256,1.341c-4.046,0-7.1-2.1-7.1-6.441h14.783l.279,0v-.279a7.9,7.9,0,0,0,.04-1.054C355.657,310.132,355.028,302.088,346.927,302.088Zm-.12,2.455c5.568,0,6.174,5.379,6.228,7.048H340.547C340.745,308.309,342.018,304.543,346.807,304.543Z" transform="translate(-23.09 2368.233)" fill="#fff"/>
    <rect id="Rectangle_1" data-name="Rectangle 1" width="2.576" height="27.732" transform="translate(334.235 2663.083)" fill="#fff"/>
    <path id="Tracé_6" data-name="Tracé 6" d="M411.212,302.029c-4.314,0-9.457,1.809-9.457,10.426s5.143,10.43,9.457,10.43a16.39,16.39,0,0,0,5.8-1.069l.18-.069v-2.539l-.379.15a14.882,14.882,0,0,1-5.4,1.03c-4.859,0-7.123-2.52-7.123-7.933s2.264-7.931,7.123-7.931a15.78,15.78,0,0,1,5.4,1.034l.374.14v-2.535l-.184-.065A17.356,17.356,0,0,0,411.212,302.029Z" transform="translate(-43.457 2368.252)" fill="#fff"/>
    <path id="Tracé_7" data-name="Tracé 7" d="M434.073,302.029c-3.534,0-9.458,1.356-9.458,10.426s5.924,10.43,9.458,10.43,9.456-1.355,9.456-10.43S437.6,302.029,434.073,302.029Zm6.921,10.426c0,5.469-2.2,8.014-6.921,8.014-4.657,0-6.921-2.621-6.921-8.014s2.264-8.012,6.921-8.012C438.794,304.443,440.995,306.991,440.995,312.455Z" transform="translate(-50.749 2368.252)" fill="#fff"/>
    <path id="Tracé_8" data-name="Tracé 8" d="M476.62,302.029a16.878,16.878,0,0,0-7.707,1.958,7.279,7.279,0,0,0-5.436-1.958,18.393,18.393,0,0,0-8.093,2.093l-.15.076v18.364h2.577V305.727a14.93,14.93,0,0,1,5.424-1.121c3.536,0,5.183,1.556,5.183,4.9v13.058h2.577V309.5a9.523,9.523,0,0,0-.609-3.5,15.054,15.054,0,0,1,6.114-1.4c3.479,0,5.1,1.556,5.1,4.9v13.058h2.576V309.5C484.175,304.685,481.494,302.029,476.62,302.029Z" transform="translate(-60.517 2368.252)" fill="#fff"/>
    <path id="Tracé_9" data-name="Tracé 9" d="M330.877,351.929c0,2.314-1.779,3.976-5.222,3.976a9.889,9.889,0,0,1-4.51-1.039v-1.542a9.586,9.586,0,0,0,4.45,1.128c2.2,0,3.8-.831,3.8-2.522,0-4.3-8.16-1.839-8.16-6.913,0-2.047,1.395-4.008,4.9-4.008a9.756,9.756,0,0,1,3.887.861v1.455a8.571,8.571,0,0,0-3.739-.889c-1.9,0-3.56.712-3.56,2.582C322.717,348.517,330.877,346.35,330.877,351.929Z" transform="translate(-17.742 2355.817)" fill="#fff"/>
    <path id="Tracé_10" data-name="Tracé 10" d="M348.611,347.076v4.392c0,3.917-4.006,4.421-5.817,4.421-1.869,0-5.993-.593-5.993-4.482,0-4.478,5.547-4.658,6.883-4.658a16.756,16.756,0,0,1,3.443.3c0-3.026-1.485-4.54-4.748-4.54a14.08,14.08,0,0,0-4.095.653v-1.426a13.507,13.507,0,0,1,4.185-.681C346.741,341.053,348.611,343.16,348.611,347.076Zm-1.454,1.305a23.063,23.063,0,0,0-3.65-.266c-1.81,0-5.254.416-5.254,3.292,0,2.643,2.761,3.147,4.541,3.147,1.751,0,4.363-.475,4.363-3.086Z" transform="translate(-22.736 2355.802)" fill="#fff"/>
    <path id="Tracé_11" data-name="Tracé 11" d="M356.337,341.4h1.455v14.393h-1.455Z" transform="translate(-28.968 2355.692)" fill="#fff"/>
    <path id="Tracé_12" data-name="Tracé 12" d="M372.259,346.29v9.378h-1.483V346.29c0-2.106-.891-3.8-4.244-3.8a12.7,12.7,0,0,0-4.569.921v12.254h-1.454V342.552a13.881,13.881,0,0,1,6.172-1.544C370.212,341.008,372.259,342.789,372.259,346.29Z" transform="translate(-30.299 2355.817)" fill="#fff"/>
    <path id="Tracé_13" data-name="Tracé 13" d="M386.254,352.433v1.4a7.587,7.587,0,0,1-1.929.266c-1.1,0-3.769-.118-3.769-3.709V340.8h-2.314V339.5h2.314v-4.064h1.483V339.5h4.155V340.8h-4.155v9.525c0,1.958,1.13,2.4,2.464,2.4A5.1,5.1,0,0,0,386.254,352.433Z" transform="translate(-35.956 2357.596)" fill="#fff"/>
    <path id="Tracé_14" data-name="Tracé 14" d="M390.587,349.115h5.9v1.423h-5.9Z" transform="translate(-39.895 2353.231)" fill="#fff"/>
    <path id="Tracé_15" data-name="Tracé 15" d="M415.5,348.561a5.224,5.224,0,0,1-.029.769H404.4a3.891,3.891,0,0,0,.268,1.278c.415,2.789,2.374,3.857,5.164,3.857a10.227,10.227,0,0,0,4.688-1.009v1.513a12.063,12.063,0,0,1-4.808.921c-3.264,0-6.824-1.4-6.824-7.122,0-2.284.712-7.714,6.409-7.714C415.438,341.053,415.5,347.61,415.5,348.561Zm-11.1-.535h9.585c0-.713-.178-5.578-4.778-5.578C406.091,342.448,404.548,344.524,404.4,348.026Z" transform="translate(-43.817 2355.802)" fill="#fff"/>
    <path id="Tracé_16" data-name="Tracé 16" d="M429.134,352.433v1.4a7.587,7.587,0,0,1-1.929.266c-1.1,0-3.768-.118-3.768-3.709V340.8h-2.314V339.5h2.314v-4.064h1.483V339.5h4.155V340.8H424.92v9.525c0,1.958,1.128,2.4,2.462,2.4A5.1,5.1,0,0,0,429.134,352.433Z" transform="translate(-49.634 2357.596)" fill="#fff"/>
    <path id="Tracé_17" data-name="Tracé 17" d="M434.512,341.4h1.454v14.393h-1.454Z" transform="translate(-53.909 2355.692)" fill="#fff"/>
    <path id="Tracé_18" data-name="Tracé 18" d="M451.2,348.561a5.008,5.008,0,0,1-.031.769H440.1a3.91,3.91,0,0,0,.266,1.278c.417,2.789,2.375,3.857,5.165,3.857a10.226,10.226,0,0,0,4.689-1.009v1.513a12.065,12.065,0,0,1-4.808.921c-3.265,0-6.824-1.4-6.824-7.122,0-2.284.712-7.714,6.409-7.714C451.14,341.053,451.2,347.61,451.2,348.561Zm-11.1-.535h9.587c0-.713-.18-5.578-4.779-5.578C441.791,342.448,440.249,344.524,440.1,348.026Z" transform="translate(-55.207 2355.802)" fill="#fff"/>
    <path id="Tracé_19" data-name="Tracé 19" d="M470.945,346.29v9.378h-1.485V346.29c0-2.106-.889-3.8-4.242-3.8a12.707,12.707,0,0,0-4.57.921v12.254h-1.453V342.552a13.884,13.884,0,0,1,6.172-1.544C468.9,341.008,470.945,342.789,470.945,346.29Z" transform="translate(-61.781 2355.817)" fill="#fff"/>
    <path id="Tracé_20" data-name="Tracé 20" d="M490.277,346.29v9.378h-1.483V346.29c0-2.106-.892-3.8-4.244-3.8a12.726,12.726,0,0,0-4.571.921v12.254h-1.454V342.552a13.9,13.9,0,0,1,6.173-1.544C488.229,341.008,490.277,342.789,490.277,346.29Z" transform="translate(-67.947 2355.817)" fill="#fff"/>
    <path id="Tracé_21" data-name="Tracé 21" d="M510.466,348.561a5.108,5.108,0,0,1-.03.769H499.367a3.911,3.911,0,0,0,.266,1.278c.418,2.789,2.375,3.857,5.163,3.857a10.23,10.23,0,0,0,4.69-1.009v1.513a12.062,12.062,0,0,1-4.807.921c-3.264,0-6.826-1.4-6.826-7.122,0-2.284.714-7.714,6.41-7.714C510.406,341.053,510.466,347.61,510.466,348.561Zm-11.1-.535h9.583c0-.713-.176-5.578-4.777-5.578C501.06,342.448,499.515,344.524,499.367,348.026Z" transform="translate(-74.116 2355.802)" fill="#fff"/>
    <path id="Tracé_22" data-name="Tracé 22" d="M413.892,337.32h-2.617l-.784,1.39h2.523Z" transform="translate(-46.244 2356.994)" fill="#fff"/>
    <rect id="Rectangle_2" data-name="Rectangle 2" width="1.45" height="1.508" transform="translate(327.374 2694.322)" fill="#fff"/>
    <rect id="Rectangle_3" data-name="Rectangle 3" width="1.452" height="1.508" transform="translate(380.563 2694.322)" fill="#fff"/>
    <path id="Tracé_23" data-name="Tracé 23" d="M275.81,311.342a19.825,19.825,0,0,1-7.412,22.694,19.8,19.8,0,0,1-12.477,7.959l-.129.023q-.487.088-.983.152l-.243.031q-.458.053-.922.085c-.087.007-.172.015-.258.02-.381.022-.763.067-1.15.067h-.022c-.063,0-.125-.005-.187-.006-.306,0-.611-.012-.914-.028-.007,0,.036-.02.028-.02a19.94,19.94,0,0,0,11.723,3.766c10.989-.159,19.9-8.71,19.9-19.665A19.784,19.784,0,0,0,275.81,311.342Z" transform="translate(4.6 2365.281)" fill="#d0170e" opacity="0.94"/>
    <path id="Tracé_24" data-name="Tracé 24" d="M259.289,300.34a19.743,19.743,0,0,1,11.731,4.721,19.833,19.833,0,0,0-34.922-5.073,19.834,19.834,0,0,1,23.191.352Z" transform="translate(9.391 2371.562)" fill="#7dae13"/>
    <path id="Tracé_25" data-name="Tracé 25" d="M278.111,320.365a20.565,20.565,0,0,1-3.638,11.459,19.4,19.4,0,0,0,8.6-16.228,18.22,18.22,0,0,0-1.19-6.466,19.743,19.743,0,0,0-11.731-4.721A19.847,19.847,0,0,1,278.111,320.365Z" transform="translate(-1.473 2367.493)" fill="#658b12"/>
    <path id="Tracé_26" data-name="Tracé 26" d="M237.56,328.776a19.834,19.834,0,0,1,18.775-26.24h.022c.387,0,.77.014,1.15.036a19.834,19.834,0,0,0-23.191-.352,19.472,19.472,0,0,0,3.244,26.557Z" transform="translate(11.173 2369.33)" fill="#004674"/>
    <path id="Tracé_27" data-name="Tracé 27" d="M260.285,304.374c-.381-.021-.781-.057-1.167-.057a19.891,19.891,0,0,0-19.911,19.863,20.183,20.183,0,0,0,1.132,6.489,19.776,19.776,0,0,0,6.952,9.428l.024,0c.3.016.608.025.914.028.069,0,.136.005.2.005.387,0,.771-.014,1.153-.035.087,0,.172-.014.258-.02.309-.022.617-.05.922-.086.082-.009.163-.02.243-.031.33-.043.659-.093.983-.152l.129-.023a19.844,19.844,0,0,0,12.429-7.957c.007-.012.017-.022.026-.034a19.858,19.858,0,0,0-4.292-27.42Z" transform="translate(8.399 2367.522)" fill="#c6080a"/>
    <path id="Tracé_28" data-name="Tracé 28" d="M235.375,330.475l-.01-.027a19.821,19.821,0,0,1-3.244-26.557,19.812,19.812,0,0,0-8.489,16.267,19.307,19.307,0,0,0,13.04,18.427v-5.132A20.374,20.374,0,0,1,235.375,330.475Z" transform="translate(13.367 2367.658)" fill="#00538c"/>
    <path id="Tracé_29" data-name="Tracé 29" d="M258.7,308.957l-15.922,9.258v22.019c1.135.457,6.289,2.056,7.505,2.444V322.625l8.6-4.99v27.744a20.657,20.657,0,0,0,7.311-.906V313.4Z" transform="translate(7.259 2366.042)" fill="#fff"/>
    <path id="Tracé_30" data-name="Tracé 30" d="M251.058,356.86" transform="translate(4.62 2350.76)" fill="#fff"/>
  </g>
</svg>